<svg width="970" height="400" viewBox="0 0 970 400" fill="none" xmlns="http://www.w3.org/2000/svg">
<rect x="137.573" width="17.2037" height="400" rx="8.60185" fill="#FF7070"/>
<rect y="105.744" width="17.2037" height="292.295" rx="8.60185" transform="rotate(-90 0 105.744)" fill="#FF7070"/>
<rect x="103.336" y="19.1094" width="13.1129" height="59.0081" rx="6.55646" fill="#3E8BFF"/>
<rect x="34.5205" y="63.3794" width="81.9277" height="14.738" rx="7.36901" fill="#3E8BFF"/>
<rect x="103.336" y="116.167" width="13.1129" height="253.46" rx="6.55646" fill="#3E8BFF"/>
<rect x="34.5205" y="116.167" width="81.9277" height="14.738" rx="7.36901" fill="#3E8BFF"/>
<rect width="13.1129" height="253.46" rx="6.55646" transform="matrix(-1 0 0 1 189.016 116.167)" fill="#3E8BFF"/>
<rect width="81.9277" height="14.738" rx="7.36901" transform="matrix(-1 0 0 1 257.831 116.167)" fill="#3E8BFF"/>
<rect width="13.1129" height="59.0081" rx="6.55646" transform="matrix(-1 0 0 1 189.016 19.1094)" fill="#3E8BFF"/>
<rect width="81.9277" height="14.738" rx="7.36901" transform="matrix(-1 0 0 1 257.831 63.3799)" fill="#3E8BFF"/>
<path d="M338.048 169V107.176H365.6C370.336 107.176 374.24 108.072 377.312 109.864C380.384 111.656 382.656 114.12 384.128 117.256C385.6 120.328 386.336 123.848 386.336 127.816C386.336 133.96 384.416 138.888 380.576 142.6C376.8 146.312 371.68 148.168 365.216 148.168H348.512V169H338.048ZM348.512 139.912H363.296C367.456 139.912 370.592 138.824 372.704 136.648C374.816 134.472 375.872 131.528 375.872 127.816C375.872 123.848 374.848 120.776 372.8 118.6C370.816 116.424 367.808 115.336 363.776 115.336H348.512V139.912ZM406.001 169.96C402.289 169.96 399.473 169.064 397.553 167.272C395.633 165.416 394.673 162.376 394.673 158.152V104.296H405.137V157.192C405.137 158.984 405.457 160.2 406.097 160.84C406.737 161.48 407.697 161.8 408.977 161.8C410.513 161.8 411.985 161.608 413.393 161.224V168.808C412.177 169.256 410.993 169.544 409.841 169.672C408.753 169.864 407.473 169.96 406.001 169.96ZM435.787 169.96C432.907 169.96 430.219 169.448 427.723 168.424C425.291 167.4 423.339 165.864 421.867 163.816C420.395 161.704 419.659 159.112 419.659 156.04C419.659 151.688 421.131 148.2 424.075 145.576C427.083 142.888 431.691 141.544 437.899 141.544H452.491V139.528C452.491 137.352 452.139 135.624 451.435 134.344C450.795 133.064 449.579 132.136 447.787 131.56C446.059 130.984 443.499 130.696 440.107 130.696C434.731 130.696 429.707 131.496 425.035 133.096V125.32C427.083 124.488 429.579 123.816 432.523 123.304C435.467 122.792 438.635 122.536 442.027 122.536C448.683 122.536 453.739 123.88 457.195 126.568C460.715 129.256 462.475 133.64 462.475 139.72V169H453.547L452.875 164.392C451.019 166.184 448.715 167.56 445.963 168.52C443.275 169.48 439.883 169.96 435.787 169.96ZM438.571 162.472C441.707 162.472 444.427 161.96 446.731 160.936C449.099 159.848 451.019 158.408 452.491 156.616V148.648H438.091C435.019 148.648 432.779 149.256 431.371 150.472C430.027 151.624 429.355 153.416 429.355 155.848C429.355 158.216 430.155 159.912 431.755 160.936C433.355 161.96 435.627 162.472 438.571 162.472ZM491.455 169.96C486.591 169.96 482.943 168.68 480.511 166.12C478.143 163.496 476.959 159.944 476.959 155.464V131.656H470.239V123.496H476.959V113.032L487.327 109.864V123.496H499.423L498.751 131.656H487.327V154.888C487.327 157.512 487.935 159.368 489.151 160.456C490.367 161.48 492.351 161.992 495.103 161.992C496.831 161.992 498.655 161.672 500.575 161.032V168.424C498.079 169.448 495.039 169.96 491.455 169.96ZM522.787 169.96C519.907 169.96 517.219 169.448 514.723 168.424C512.291 167.4 510.339 165.864 508.867 163.816C507.395 161.704 506.659 159.112 506.659 156.04C506.659 151.688 508.131 148.2 511.075 145.576C514.083 142.888 518.691 141.544 524.899 141.544H539.491V139.528C539.491 137.352 539.139 135.624 538.435 134.344C537.795 133.064 536.579 132.136 534.787 131.56C533.059 130.984 530.499 130.696 527.107 130.696C521.731 130.696 516.707 131.496 512.035 133.096V125.32C514.083 124.488 516.579 123.816 519.523 123.304C522.467 122.792 525.635 122.536 529.027 122.536C535.683 122.536 540.739 123.88 544.195 126.568C547.715 129.256 549.475 133.64 549.475 139.72V169H540.547L539.875 164.392C538.019 166.184 535.715 167.56 532.963 168.52C530.275 169.48 526.883 169.96 522.787 169.96ZM525.571 162.472C528.707 162.472 531.427 161.96 533.731 160.936C536.099 159.848 538.019 158.408 539.491 156.616V148.648H525.091C522.019 148.648 519.779 149.256 518.371 150.472C517.027 151.624 516.355 153.416 516.355 155.848C516.355 158.216 517.155 159.912 518.755 160.936C520.355 161.96 522.627 162.472 525.571 162.472ZM563.863 169V131.656H557.239V123.496H563.863V117.928C563.863 113.384 565.111 109.736 567.607 106.984C570.167 104.168 573.943 102.76 578.935 102.76C580.791 102.76 582.487 102.92 584.023 103.24C585.559 103.496 586.967 103.88 588.247 104.392V111.88C586.263 111.176 584.247 110.824 582.199 110.824C579.191 110.824 577.111 111.368 575.959 112.456C574.807 113.544 574.231 115.4 574.231 118.024V123.496H586.135L585.655 131.656H574.231V169H563.863ZM614.09 169.96C605.898 169.96 599.882 167.912 596.042 163.816C592.266 159.72 590.378 153.864 590.378 146.248C590.378 138.632 592.298 132.776 596.138 128.68C599.978 124.584 605.962 122.536 614.09 122.536C622.282 122.536 628.298 124.584 632.138 128.68C635.978 132.776 637.898 138.632 637.898 146.248C637.898 153.864 635.978 159.72 632.138 163.816C628.362 167.912 622.346 169.96 614.09 169.96ZM614.09 161.128C618.89 161.128 622.282 159.976 624.266 157.672C626.314 155.304 627.338 151.496 627.338 146.248C627.338 141 626.314 137.224 624.266 134.92C622.282 132.616 618.89 131.464 614.09 131.464C609.354 131.464 605.962 132.616 603.914 134.92C601.93 137.224 600.938 141 600.938 146.248C600.938 151.496 601.93 155.304 603.914 157.672C605.962 159.976 609.354 161.128 614.09 161.128ZM648.079 169V123.496H657.679L658.255 128.776C660.431 127.368 663.023 126.088 666.031 124.936C669.039 123.784 672.015 122.984 674.959 122.536V130.504C673.167 130.824 671.215 131.304 669.103 131.944C667.055 132.52 665.103 133.192 663.247 133.96C661.391 134.664 659.823 135.4 658.543 136.168V169H648.079ZM682.579 169V123.496H692.179L692.659 128.296C694.899 126.504 697.363 125.096 700.051 124.072C702.739 123.048 705.619 122.536 708.691 122.536C711.955 122.536 714.483 123.08 716.275 124.168C718.131 125.192 719.539 126.632 720.499 128.488C722.611 126.76 725.043 125.352 727.795 124.264C730.547 123.112 733.843 122.536 737.683 122.536C742.931 122.536 746.803 123.88 749.299 126.568C751.795 129.256 753.043 133.384 753.043 138.952V169H742.771V140.008C742.771 136.488 742.035 134.024 740.563 132.616C739.091 131.208 736.691 130.504 733.363 130.504C731.187 130.504 729.107 130.888 727.123 131.656C725.203 132.424 723.539 133.576 722.131 135.112C722.323 135.816 722.451 136.552 722.515 137.32C722.579 138.088 722.611 138.92 722.611 139.816V169H712.915V140.104C712.915 136.776 712.339 134.344 711.187 132.808C710.035 131.272 707.859 130.504 704.659 130.504C702.419 130.504 700.275 131.048 698.227 132.136C696.243 133.16 694.451 134.408 692.851 135.88V169H682.579ZM777.6 169.96C774.72 169.96 772.032 169.448 769.536 168.424C767.104 167.4 765.152 165.864 763.68 163.816C762.208 161.704 761.472 159.112 761.472 156.04C761.472 151.688 762.944 148.2 765.888 145.576C768.896 142.888 773.504 141.544 779.712 141.544H794.304V139.528C794.304 137.352 793.952 135.624 793.248 134.344C792.608 133.064 791.392 132.136 789.6 131.56C787.872 130.984 785.312 130.696 781.92 130.696C776.544 130.696 771.52 131.496 766.848 133.096V125.32C768.896 124.488 771.392 123.816 774.336 123.304C777.28 122.792 780.448 122.536 783.84 122.536C790.496 122.536 795.552 123.88 799.008 126.568C802.528 129.256 804.288 133.64 804.288 139.72V169H795.36L794.688 164.392C792.832 166.184 790.528 167.56 787.776 168.52C785.088 169.48 781.696 169.96 777.6 169.96ZM780.384 162.472C783.52 162.472 786.24 161.96 788.544 160.936C790.912 159.848 792.832 158.408 794.304 156.616V148.648H779.904C776.832 148.648 774.592 149.256 773.184 150.472C771.84 151.624 771.168 153.416 771.168 155.848C771.168 158.216 771.968 159.912 773.568 160.936C775.168 161.96 777.44 162.472 780.384 162.472Z" fill="#E1E1E1"/>
<path d="M679.048 288V226.176H689.512V288H679.048ZM701.642 288V226.176H729.194C733.93 226.176 737.834 227.072 740.906 228.864C743.978 230.656 746.25 233.12 747.722 236.256C749.194 239.328 749.93 242.848 749.93 246.816C749.93 252.96 748.01 257.888 744.17 261.6C740.394 265.312 735.274 267.168 728.81 267.168H712.106V288H701.642ZM712.106 258.912H726.89C731.05 258.912 734.186 257.824 736.298 255.648C738.41 253.472 739.466 250.528 739.466 246.816C739.466 242.848 738.442 239.776 736.394 237.6C734.41 235.424 731.402 234.336 727.37 234.336H712.106V258.912ZM758.267 288V226.176H786.683C793.595 226.176 798.619 227.968 801.755 231.552C804.955 235.072 806.555 239.872 806.555 245.952C806.555 250.304 805.467 254.016 803.291 257.088C801.115 260.16 797.979 262.304 793.883 263.52C795.035 264.352 795.931 265.248 796.571 266.208C797.211 267.168 797.851 268.448 798.491 270.048L806.267 288H795.515L787.931 270.72C787.227 269.056 786.363 267.872 785.339 267.168C784.379 266.464 782.715 266.112 780.347 266.112H768.731V288H758.267ZM768.731 257.664H783.899C787.675 257.664 790.651 256.736 792.827 254.88C795.003 253.024 796.091 250.048 796.091 245.952C796.091 238.208 792.347 234.336 784.859 234.336H768.731V257.664Z" fill="#E1E1E1"/>
</svg>
